<?xml version="1.0" encoding="UTF-8" standalone="no"?>
<svg
   xmlns:dc="http://purl.org/dc/elements/1.1/"
   xmlns:cc="http://creativecommons.org/ns#"
   xmlns:rdf="http://www.w3.org/1999/02/22-rdf-syntax-ns#"
   xmlns:svg="http://www.w3.org/2000/svg"
   xmlns="http://www.w3.org/2000/svg"
   xmlns:sodipodi="http://sodipodi.sourceforge.net/DTD/sodipodi-0.dtd"
   xmlns:inkscape="http://www.inkscape.org/namespaces/inkscape"
   version="1.1"
   id="svg2"
   xml:space="preserve"
   viewBox="0 0 217.8 319.46667"
   sodipodi:docname="Lyttildanskesalmer_logo.eps"><metadata
     id="metadata8"><rdf:RDF><cc:Work
         rdf:about=""><dc:format>image/svg+xml</dc:format><dc:type
           rdf:resource="http://purl.org/dc/dcmitype/StillImage" /></cc:Work></rdf:RDF></metadata><defs
     id="defs6" /><sodipodi:namedview
     pagecolor="#ffffff"
     bordercolor="#666666"
     borderopacity="1"
     objecttolerance="10"
     gridtolerance="10"
     guidetolerance="10"
     inkscape:pageopacity="0"
     inkscape:pageshadow="2"
     inkscape:window-width="640"
     inkscape:window-height="480"
     id="namedview4" /><g
     id="g10"
     inkscape:groupmode="layer"
     inkscape:label="ink_ext_XXXXXX"
     transform="matrix(1.3333333,0,0,-1.3333333,0,319.46667)"><g
       id="g12"
       transform="scale(0.1)"><path
         d="M 1304.02,676.98 C 1331.46,559.871 1462.75,505.121 1477.61,384.422 1496.22,233.301 1345.3,106.59 1241.32,21.4609 1228.36,10.8516 1246.94,-7.35938 1259.8,3.17969 1367.17,91.0703 1485.54,197.781 1503.52,343.32 c 18.7,151.469 -143.57,208.871 -174.38,340.391 -3.83,16.34 -28.93,9.559 -25.12,-6.731 v 0"
         style="fill:#100f0d;fill-opacity:1;fill-rule:nonzero;stroke:none"
         id="path14" /><path
         d="m 1573.34,1275.27 c 107.74,354.42 96.51,784.23 -250.33,1000.31 -166.48,103.72 -365.936,123.88 -557.658,119.95 -180.418,-3.7 -369.161,-49.47 -512.969,-163.07 C 116.641,2125.24 37.0078,1971.44 10.3867,1801.91 c -14.99217,-95.47 -12.81248,-193.88 0.5078,-289.4 7.7618,-55.69 18.8828,-110.6 32.75,-165.08 5.668,-22.28 27.5469,-66.59 12.9336,-86.59 -12.1679,-16.65 -16.125,-31.61 -14.2968,-52.23 4.0703,-46.03 33.6718,-94.56 53.5781,-135.23 34.0386,-69.51 60.1176,-143.439 89.3946,-215.091 14.656,-35.848 14.391,-91.82 51.137,-115.051 26.097,-16.5 48.468,-21.457 64.972,-51.429 9.211,-16.727 24.117,-27.207 41.617,-33.368 27.883,-9.82 78.602,15.868 97.102,34.61 17.469,17.687 3.121,61.597 -0.648,82.097 -22.664,123.063 -91.246,237.452 -136.817,352.932 -18.808,47.67 -40.258,98.07 -75.902,135.78 -9.61,10.16 -22.824,15.55 -35.754,19.92 -1.527,0.52 -29.238,7.08 -27.25,1.54 -3.086,8.61 -3.824,18.6 -5.258,27.56 -7.09,44.29 -11.699,89 -18.223,133.39 -13.535,92.16 -15.753,186.31 -4.707,278.83 15.747,131.88 66.075,259.77 159.997,355.48 135.234,137.82 337.679,175.05 523.14,176.37 187.14,1.33 386.23,-41.2 523.43,-176.47 95.27,-93.93 143.24,-224.67 159.89,-355.2 11.78,-92.33 8.57,-186.93 -4.69,-278.94 -6.4,-44.42 -11.62,-89 -18.22,-133.39 -3.72,-25.07 -0.74,-22.79 -22.59,-26.76 -13.58,-2.46 -28.49,-7.87 -39.18,-16.87 -41.35,-34.83 -62.53,-92.53 -82.39,-141.17 -49.74,-121.82 -118.49,-242.591 -140.43,-373.502 -5.14,-30.648 -10.56,-53.578 17.44,-71.039 28.85,-18 75.56,-42.609 106.05,-13.129 22.09,21.36 30.17,48.961 61.01,61.149 19.41,7.691 31.09,18.332 42.83,35.133 15.55,22.25 18.87,54.008 26.15,79.457 11.62,40.621 32.19,80.242 48.07,119.371 25.9,63.8 56.36,125.17 82.78,188.65 8.47,20.36 20.14,47.31 17.07,70.07 -2.39,17.74 -23.76,38.3 -22.08,54.3 1.76,16.7 -24.27,16.68 -26,0.18 -1.34,-12.67 3.28,-20.94 10.66,-31.03 20.14,-27.56 6.22,-58.08 -4.73,-86.65 -22.22,-57.94 -52.32,-113.03 -75.54,-170.751 -25.36,-63.019 -50.28,-124.461 -69.66,-189.48 -10.97,-36.789 -39.73,-41.848 -67.71,-59.059 -29.04,-17.851 -28.9,-67.41 -75.37,-56.148 -24.34,5.898 -50.24,19.687 -48.05,45.867 1.8,21.609 6.85,43.231 11.56,64.359 15.01,67.473 48.09,130.922 76.63,193.422 28.92,63.32 50.6,129.77 81.38,192.21 12.66,25.68 28.44,56.09 53.2,71.94 14.96,9.58 43.21,3.13 54.3,16.18 15,17.66 12.87,58.18 15.71,80.16 2.99,23.1 5.35,46.28 9.07,69.29 5.13,31.74 9.1,63.66 11.84,95.7 9.18,107.09 3.21,216.32 -24.03,320.52 -33.01,126.26 -103.62,237.82 -208.29,316.41 C 1147.73,2265.14 944.457,2289 761.348,2281.61 590.941,2274.72 416.98,2228.52 289.18,2110.65 194.906,2023.7 141.148,1902.35 117.574,1778.05 98.832,1679.24 98.7813,1577.16 110.16,1477.48 c 3.117,-27.28 8.156,-54.26 11.516,-81.48 4.375,-35.43 8.183,-70.99 14.402,-106.15 6.871,-38.84 45.707,-22.04 72.352,-44.48 50.457,-42.51 71.234,-130.02 94.375,-188.71 28.031,-71.109 63.929,-138.719 90.461,-210.48 14.527,-39.289 24.089,-81.41 27.57,-123.16 1.977,-23.668 -47.223,-38.668 -64.984,-40.122 -24.704,-2 -46.5,51.141 -68.18,64.473 -31.356,19.27 -50.832,27.109 -62.567,66.488 -8.894,29.852 -17.523,57.993 -29.367,86.961 -25.351,62.008 -48.097,125.48 -77.449,185.73 -23.4726,48.18 -71.3827,117.24 -34.7773,167.34 22.1403,30.3 -14.0469,96.78 -21.8164,128.56 -49.289,201.69 -55.76952,424.16 34.5703,615.51 79.1604,167.67 232.2184,279.18 406.7384,332.22 197.617,60.05 433.641,57.25 631.436,0.01 176.58,-51.1 325.29,-166.51 406.84,-332.31 109.07,-221.72 76.27,-487.82 6.98,-715.75 -4.89,-16.09 20.22,-22.86 25.08,-6.86"
         style="fill:#100f0d;fill-opacity:1;fill-rule:nonzero;stroke:none"
         id="path16" /><path
         d="m 1337.28,1518.02 -5.51,-10.95 -9.22,-11.63 -9.26,-7.81 -10.27,-5.87 -11.91,-4.09 -6.08,-1.17 -38.88,-4.53 v -52.91 l -376.127,71.4 93.528,-852.96 H 886.84 l -6.465,-47.512 -4.434,-11.41 -6.421,-10.328 -7.965,-8.809 -9.614,-7.351 -13.367,-6.531 -11.988,-2.969 -9.844,-0.668 -9.433,0.558 -11.875,2.801 -11.059,4.91 -12.383,8.918 -9.863,11.172 -6.043,10.668 -3.93,11.403 -1.199,6.109 -4.555,39.039 h -76.757 l 93.496,852.96 -376.094,-71.4 v 52.9 l -47.559,6.37 -8.66,3.12 -12.996,7.69 -8.887,8.07 -7.34,9.5 -5.437,10.57 -3.547,12.07 -1.172,9.22 -0.082,3.39 1.192,12.6 3.3,11.65 7.137,13.42 7.727,9.32 9.086,7.62 13.16,7.13 12.094,3.57 2.968,0.51 39.016,4.61 v 52.86 l 378.312,-71.74 -71.73,410.03 h 52.773 l 7.235,50.35 5.008,11.27 8.695,12.13 11.223,9.95 10.558,6.02 11.481,3.97 12.32,1.86 3.504,0.09 12.445,-1.11 11.856,-3.38 10.832,-5.44 9.531,-7.2 9.961,-11.28 7.164,-13.34 3.473,-11.71 0.542,-3.37 4.61,-38.81 h 52.707 l -71.727,-410.03 378.33,71.74 v -52.86 l 47.67,-6.51 11.1,-4.31 12.72,-8.27 8.53,-8.41 6.92,-9.92 5.98,-13.88 2.38,-12.31 0.35,-6.46 -1.2,-12.67 z m -52.85,119.31 -9.06,0.86 v 76.39 l -376.315,-90.17 92.347,408.35 H 912.59 l -0.848,9.07 c -4.59,49.38 -45.492,86.62 -95.14,86.62 -49.653,0 -90.563,-37.24 -95.161,-86.62 l -0.843,-9.07 h -78.805 l 92.324,-408.34 -376.336,90.16 v -76.43 l -9.066,-0.85 c -49.36,-4.62 -86.586,-45.52 -86.598,-95.15 0,-49.65 37.231,-90.56 86.594,-95.17 l 9.07,-0.84 v -76.41 l 374.707,89.75 -103.84,-851.21 91.938,-0.02 0.844,-9.078 c 4.609,-49.344 45.527,-86.551 95.172,-86.551 49.648,0 90.546,37.219 95.14,86.57 l 0.848,9.079 h 91.92 l -103.826,851.21 374.686,-89.75 v 76.41 l 9.08,0.84 c 49.36,4.59 86.59,45.49 86.59,95.17 0,49.62 -37.24,90.54 -86.61,95.18"
         style="fill:#1b1819;fill-opacity:1;fill-rule:nonzero;stroke:none"
         id="path18" /></g></g></svg>
